<svg xmlns="http://www.w3.org/2000/svg" viewBox="0 0 346.77 59.89"><defs><style>.cls-1{fill:#990ccf;}.cls-2{fill:#dadada;}</style></defs><title>Asset 5</title><g id="Layer_2" data-name="Layer 2"><g id="Layer_1-2" data-name="Layer 1"><path class="cls-1" d="M33.09,1.06l8.23,16.67a1.89,1.89,0,0,0,1.43,1l18.39,2.67a1.9,1.9,0,0,1,1.06,3.24l-13.32,13a1.89,1.89,0,0,0-.54,1.68l3.14,18.32a1.89,1.89,0,0,1-2.75,2L32.27,51a1.91,1.91,0,0,0-1.77,0L14.05,59.66a1.9,1.9,0,0,1-2.76-2l3.14-18.32a1.87,1.87,0,0,0-.54-1.68L.58,24.68a1.9,1.9,0,0,1,1-3.24L20,18.77a1.92,1.92,0,0,0,1.43-1L29.68,1.06A1.9,1.9,0,0,1,33.09,1.06Z"/><path class="cls-1" d="M104.09,1.06l8.23,16.67a1.89,1.89,0,0,0,1.43,1l18.39,2.67a1.9,1.9,0,0,1,1.06,3.24l-13.32,13a1.89,1.89,0,0,0-.54,1.68l3.14,18.32a1.89,1.89,0,0,1-2.75,2L103.27,51a1.91,1.91,0,0,0-1.77,0L85.05,59.66a1.9,1.9,0,0,1-2.76-2l3.14-18.32a1.87,1.87,0,0,0-.54-1.68l-13.31-13a1.9,1.9,0,0,1,1-3.24L91,18.77a1.92,1.92,0,0,0,1.43-1l8.22-16.67A1.9,1.9,0,0,1,104.09,1.06Z"/><path class="cls-1" d="M175.09,1.06l8.23,16.67a1.89,1.89,0,0,0,1.43,1l18.39,2.67a1.9,1.9,0,0,1,1.06,3.24l-13.32,13a1.89,1.89,0,0,0-.54,1.68l3.14,18.32a1.89,1.89,0,0,1-2.75,2L174.27,51a1.91,1.91,0,0,0-1.77,0l-16.45,8.65a1.9,1.9,0,0,1-2.76-2l3.14-18.32a1.87,1.87,0,0,0-.54-1.68l-13.31-13a1.9,1.9,0,0,1,1-3.24L162,18.77a1.92,1.92,0,0,0,1.43-1l8.22-16.67A1.9,1.9,0,0,1,175.09,1.06Z"/><path class="cls-2" d="M246.09,1.06l8.23,16.67a1.89,1.89,0,0,0,1.43,1l18.39,2.67a1.9,1.9,0,0,1,1.06,3.24l-13.32,13a1.89,1.89,0,0,0-.54,1.68l3.14,18.32a1.89,1.89,0,0,1-2.75,2L245.27,51a1.91,1.91,0,0,0-1.77,0l-16.45,8.65a1.9,1.9,0,0,1-2.76-2l3.14-18.32a1.87,1.87,0,0,0-.54-1.68l-13.31-13a1.9,1.9,0,0,1,1-3.24L233,18.77a1.92,1.92,0,0,0,1.43-1l8.22-16.67A1.9,1.9,0,0,1,246.09,1.06Z"/><path class="cls-2" d="M317.09,1.06l8.23,16.67a1.89,1.89,0,0,0,1.43,1l18.39,2.67a1.9,1.9,0,0,1,1.06,3.24l-13.32,13a1.89,1.89,0,0,0-.54,1.68l3.14,18.32a1.89,1.89,0,0,1-2.75,2L316.27,51a1.91,1.91,0,0,0-1.77,0l-16.45,8.65a1.9,1.9,0,0,1-2.76-2l3.14-18.32a1.87,1.87,0,0,0-.54-1.68l-13.31-13a1.9,1.9,0,0,1,1.05-3.24L304,18.77a1.92,1.92,0,0,0,1.43-1l8.22-16.67A1.9,1.9,0,0,1,317.09,1.06Z"/></g></g></svg>