<svg xmlns="http://www.w3.org/2000/svg" viewBox="0 0 144 144"><defs><style>.cls-1{fill:#fff;}.cls-2{fill:none;stroke:#fff;stroke-miterlimit:10;stroke-width:5px;}</style></defs><title>Asset 1</title><g id="Layer_2" data-name="Layer 2"><g id="Layer_1-2" data-name="Layer 1"><path class="cls-1" d="M72,42A30,30,0,1,1,42,72,30,30,0,0,1,72,42m0-5a35,35,0,1,0,35,35A35,35,0,0,0,72,37Z"/><line class="cls-2" x1="72.5" x2="72.5" y2="23"/><line class="cls-2" x1="72.5" x2="72.5" y2="23"/><line class="cls-2" x1="21.44" y1="20.73" x2="37.71" y2="37"/><line class="cls-2" y1="71.5" x2="23" y2="71.5"/><line class="cls-2" x1="20.73" y1="122.56" x2="37" y2="106.29"/><line class="cls-2" x1="71.5" y1="144" x2="71.5" y2="121"/><line class="cls-2" x1="122.56" y1="123.27" x2="106.29" y2="107"/><line class="cls-2" x1="144" y1="72.5" x2="121" y2="72.5"/><line class="cls-2" x1="123.27" y1="21.44" x2="107" y2="37.71"/></g></g></svg>