<svg xmlns="http://www.w3.org/2000/svg" viewBox="0 0 138.95 105.3"><defs><style>.cls-1{fill:none;stroke:#fff;stroke-miterlimit:10;stroke-width:5px;}.cls-2{fill:#fff;}</style></defs><title>Asset 2</title><g id="Layer_2" data-name="Layer 2"><g id="Layer_1-2" data-name="Layer 1"><line class="cls-1" x1="97.53" x2="97.53" y2="13.32"/><line class="cls-1" x1="67.95" y1="12.01" x2="77.37" y2="21.44"/><line class="cls-1" x1="138.95" y1="42" x2="125.63" y2="42"/><line class="cls-1" x1="126.94" y1="12.42" x2="117.52" y2="21.85"/><path class="cls-2" d="M97.25,26.31a15.36,15.36,0,0,1,15.34,15.34A15.2,15.2,0,0,1,111,48.47a22,22,0,0,0-26.52-8.63,30.26,30.26,0,0,0-1.38-4.09,15.41,15.41,0,0,1,14.15-9.44m0-5A20.34,20.34,0,0,0,77.72,36a25.57,25.57,0,0,1,2.72,11.5v.88A17,17,0,0,1,109.31,58a20.33,20.33,0,0,0-12.06-36.7Z"/><path class="cls-2" d="M56.67,23.49A24,24,0,0,1,80.58,47.4v.82a15.67,15.67,0,0,1,25.66,17h3.2A17.61,17.61,0,0,1,127,82.74h0a17.61,17.61,0,0,1-17.56,17.56H28.86l-.49,0-1,0A22.39,22.39,0,1,1,32,56V47.4A24,24,0,0,1,55.89,23.49h.78m0-5h-.78A29,29,0,0,0,27,47.4v3.13a27.39,27.39,0,0,0,.42,54.77h82.05a22.56,22.56,0,0,0,3-44.93q0-.57,0-1.14A20.71,20.71,0,0,0,84.57,39.82a29,29,0,0,0-27.9-21.33Z"/><path class="cls-2" d="M56.67,23.49A24,24,0,0,1,80.58,47.4v.82a15.67,15.67,0,0,1,25.66,17h3.2A17.61,17.61,0,0,1,127,82.74h0a17.61,17.61,0,0,1-17.56,17.56H28.86l-.49,0-1,0A22.39,22.39,0,1,1,32,56V47.4A24,24,0,0,1,55.89,23.49h.78m0-5h-.78A29,29,0,0,0,27,47.4v3.13a27.39,27.39,0,0,0,.42,54.77h82.05a22.56,22.56,0,0,0,3-44.93q0-.57,0-1.14A20.71,20.71,0,0,0,84.57,39.82a29,29,0,0,0-27.9-21.33Z"/></g></g></svg>