<svg xmlns="http://www.w3.org/2000/svg" viewBox="0 0 148.15 96.98"><defs><style>.cls-1{fill:#fff;}</style></defs><title>Asset 3</title><g id="Layer_2" data-name="Layer 2"><g id="Layer_1-2" data-name="Layer 1"><path class="cls-1" d="M63.51,5A27.15,27.15,0,0,1,90.58,32.08V33a17.75,17.75,0,0,1,29.06,19.2h3.62A20,20,0,0,1,143.15,72.1h0A20,20,0,0,1,123.26,92H32a5.25,5.25,0,0,1-.56,0q-.55,0-1.11,0a25.35,25.35,0,1,1,5.19-50.16V32.08A27.16,27.16,0,0,1,62.62,5h.89m0-5h-.89A32.12,32.12,0,0,0,30.54,32.08v4.2h-.19a30.35,30.35,0,0,0,0,60.7l1,0L32,97h91.24a24.88,24.88,0,0,0,2.64-49.63c0-.62.07-1.25.07-1.88A22.76,22.76,0,0,0,94.65,24.38,32.14,32.14,0,0,0,63.51,0Z"/></g></g></svg>