<svg xmlns="http://www.w3.org/2000/svg" viewBox="0 0 141.74 96.87"><defs><style>.cls-1{fill:#fff;}</style></defs><title>Asset 4</title><g id="Layer_2" data-name="Layer 2"><g id="Layer_1-2" data-name="Layer 1"><path class="cls-1" d="M56.67,15.05A24,24,0,0,1,80.58,39v.82a15.68,15.68,0,0,1,26.84,11,15.48,15.48,0,0,1-1.18,6h3.2A17.62,17.62,0,0,1,127,74.31h0a17.62,17.62,0,0,1-17.56,17.56H28.86c-.17,0-.33,0-.49,0-.33,0-.65,0-1,0A22.39,22.39,0,1,1,32,47.57V39A24,24,0,0,1,55.89,15.05h.78m0-5h-.78A29,29,0,0,0,27,39v3.13a27.39,27.39,0,0,0,.42,54.78l.91,0,.56,0h80.58a22.56,22.56,0,0,0,3-44.93c0-.38,0-.77,0-1.15A20.71,20.71,0,0,0,84.57,31.38a29,29,0,0,0-27.9-21.33Z"/><path class="cls-1" d="M56.67,15.05A24,24,0,0,1,80.58,39v.82a15.68,15.68,0,0,1,26.84,11,15.48,15.48,0,0,1-1.18,6h3.2A17.62,17.62,0,0,1,127,74.31h0a17.62,17.62,0,0,1-17.56,17.56H28.86c-.17,0-.33,0-.49,0-.33,0-.65,0-1,0A22.39,22.39,0,1,1,32,47.57V39A24,24,0,0,1,55.89,15.05h.78m0-5h-.78A29,29,0,0,0,27,39v3.13a27.39,27.39,0,0,0,.42,54.78l.91,0,.56,0h80.58a22.56,22.56,0,0,0,3-44.93c0-.38,0-.77,0-1.15A20.71,20.71,0,0,0,84.57,31.38a29,29,0,0,0-27.9-21.33Z"/><path class="cls-1" d="M83.94,5a17.78,17.78,0,0,1,18,17.51v.6a11.89,11.89,0,0,1,8.38-3.42A11.63,11.63,0,0,1,122,31.17a11.28,11.28,0,0,1-.88,4.36h2.4a13.06,13.06,0,0,1,13.18,12.86h0a13,13,0,0,1-9.65,12.38C121.34,53,112,52.12,112,52.12s2-9.7-7.85-17.33a20,20,0,0,0-12.43-4.37,18.89,18.89,0,0,0-7.35,1.41,30.13,30.13,0,0,0-16-19A18.09,18.09,0,0,1,83.35,5h.59m0-5h-.59A23.05,23.05,0,0,0,64.26,10.06L61,14.87l5.24,2.51A25,25,0,0,1,79.61,33.26L81.31,39l5.19-2.59a14.68,14.68,0,0,1,5.25-.94,15.12,15.12,0,0,1,9.37,3.32c7.18,5.57,6,12.31,6,12.37L106,56.56l5.53.54s7.25.87,11.54,6.65l2,2.74,3.29-.9A17.78,17.78,0,0,0,127,30.86a16.66,16.66,0,0,0-16.77-16.17,17,17,0,0,0-4.58.62A23,23,0,0,0,83.94,0Z"/></g></g></svg>