<svg xmlns="http://www.w3.org/2000/svg" viewBox="0 0 127.04 129.85"><defs><style>.cls-1{fill:none;stroke:#fff;stroke-miterlimit:10;stroke-width:5px;}.cls-2{fill:#fff;}</style></defs><title>Asset 5</title><g id="Layer_2" data-name="Layer 2"><g id="Layer_1-2" data-name="Layer 1"><line class="cls-1" x1="33.92" y1="83.31" x2="30.22" y2="93.49"/><line class="cls-1" x1="27.96" y1="101.57" x2="22.62" y2="116.24"/><line class="cls-1" x1="50.87" y1="96.33" x2="45.54" y2="111"/><line class="cls-1" x1="42.78" y1="118.58" x2="39.14" y2="128.58"/><line class="cls-1" x1="75.4" y1="89" x2="70.07" y2="103.66"/><line class="cls-1" x1="66.19" y1="114.33" x2="60.85" y2="129"/><path class="cls-2" d="M50.9,13.93A21.31,21.31,0,0,1,72.15,35.17v.73A13.92,13.92,0,0,1,94.94,51h2.84a15.65,15.65,0,0,1,15.61,15.6h0a15.65,15.65,0,0,1-15.61,15.6H26.2l-.44,0-.87,0a19.89,19.89,0,0,1,0-39.78,20.14,20.14,0,0,1,4.07.43V35.17A21.31,21.31,0,0,1,50.21,13.93h.69m0-5h-.69A26.28,26.28,0,0,0,24,35.17v2.24a24.89,24.89,0,0,0,.93,49.76H97.78A20.6,20.6,0,0,0,101,46.22c0-.18,0-.36,0-.54a19,19,0,0,0-24.92-18A26.3,26.3,0,0,0,50.9,8.93Z"/><path class="cls-2" d="M50.9,13.93A21.31,21.31,0,0,1,72.15,35.17v.73A13.92,13.92,0,0,1,94.94,51h2.84a15.65,15.65,0,0,1,15.61,15.6h0a15.65,15.65,0,0,1-15.61,15.6H26.2l-.44,0-.87,0a19.89,19.89,0,0,1,0-39.78,20.14,20.14,0,0,1,4.07.43V35.17A21.31,21.31,0,0,1,50.21,13.93h.69m0-5h-.69A26.28,26.28,0,0,0,24,35.17v2.24a24.89,24.89,0,0,0,.93,49.76H97.78A20.6,20.6,0,0,0,101,46.22c0-.18,0-.36,0-.54a19,19,0,0,0-24.92-18A26.3,26.3,0,0,0,50.9,8.93Z"/><path class="cls-2" d="M75.13,5a15.81,15.81,0,0,1,16,15.56v.53a10.58,10.58,0,0,1,7.44-3A10.33,10.33,0,0,1,109,28.25a10.07,10.07,0,0,1-.78,3.88h2.13A11.6,11.6,0,0,1,122,43.55h0a11.52,11.52,0,0,1-8.57,11c-5.11-6.88-13.38-7.68-13.38-7.68s1.77-8.63-7-15.4a17.75,17.75,0,0,0-11-3.89,16.79,16.79,0,0,0-6.53,1.25A26.75,26.75,0,0,0,61.32,12,16,16,0,0,1,74.61,5h.52m0-5h-.52A21.05,21.05,0,0,0,57.18,9.18L53.91,14l5.25,2.52A21.65,21.65,0,0,1,70.75,30.27l1.7,5.7,5.19-2.6a12.38,12.38,0,0,1,4.43-.79,12.8,12.8,0,0,1,8,2.84c6.11,4.74,5.15,10.38,5.14,10.44L94.07,51.3l5.53.54s6.19.76,9.85,5.69l2,2.74,3.3-.9A16.35,16.35,0,0,0,114,27.52,15.36,15.36,0,0,0,98.52,13.05a15.76,15.76,0,0,0-3.71.44A21,21,0,0,0,75.13,0Z"/></g></g></svg>