<svg xmlns="http://www.w3.org/2000/svg" viewBox="0 0 123.7 136.37"><defs><style>.cls-1,.cls-2{fill:none;stroke:#fff;stroke-miterlimit:10;}.cls-1{stroke-width:5px;}.cls-2{stroke-width:4.45px;}.cls-3{fill:#fff;}</style></defs><title>Asset 6</title><g id="Layer_2" data-name="Layer 2"><g id="Layer_1-2" data-name="Layer 1"><line class="cls-1" x1="33.97" y1="89.83" x2="30.27" y2="100"/><line class="cls-1" x1="28" y1="108.08" x2="22.67" y2="122.75"/><line class="cls-1" x1="50.92" y1="102.84" x2="45.59" y2="117.51"/><line class="cls-1" x1="42.83" y1="125.09" x2="39.19" y2="135.09"/><line class="cls-1" x1="75.45" y1="95.51" x2="70.12" y2="110.17"/><line class="cls-1" x1="66.24" y1="120.84" x2="60.9" y2="135.51"/><line class="cls-2" x1="86.82" x2="86.82" y2="11.86"/><line class="cls-2" x1="60.49" y1="10.69" x2="68.88" y2="19.08"/><line class="cls-2" x1="123.7" y1="37.39" x2="111.84" y2="37.39"/><line class="cls-2" x1="113.01" y1="11.06" x2="104.62" y2="19.45"/><path class="cls-3" d="M86.58,23.42a13.67,13.67,0,0,1,13.65,13.66,13.48,13.48,0,0,1-1.42,6.07A19.54,19.54,0,0,0,75.2,35.47,26.5,26.5,0,0,0,74,31.82a13.73,13.73,0,0,1,12.6-8.4m0-4.45A18.11,18.11,0,0,0,69.19,32.05a22.74,22.74,0,0,1,2.42,10.23v.79a15.09,15.09,0,0,1,25.7,8.57A18.1,18.1,0,0,0,86.58,19Z"/><path class="cls-3" d="M50.45,20.91A21.35,21.35,0,0,1,71.74,42.2v.73A14,14,0,0,1,94.58,58h2.85a15.68,15.68,0,0,1,15.63,15.63h0A15.68,15.68,0,0,1,97.43,89.29H25.69l-.43,0-.88,0a19.93,19.93,0,0,1,0-39.86,20.23,20.23,0,0,1,4.08.43V42.2A21.35,21.35,0,0,1,49.75,20.91h.7m0-4.45h-.7A25.77,25.77,0,0,0,24,42.2V45a24.38,24.38,0,0,0,.37,48.76H97.43a20.08,20.08,0,0,0,2.62-40c0-.34,0-.68,0-1A18.43,18.43,0,0,0,75.29,35.45a25.78,25.78,0,0,0-24.84-19Z"/><path class="cls-3" d="M50.45,20.91A21.35,21.35,0,0,1,71.74,42.2v.73A14,14,0,0,1,94.58,58h2.85a15.68,15.68,0,0,1,15.63,15.63h0A15.68,15.68,0,0,1,97.43,89.29H25.69l-.43,0-.88,0a19.93,19.93,0,0,1,0-39.86,20.23,20.23,0,0,1,4.08.43V42.2A21.35,21.35,0,0,1,49.75,20.91h.7m0-4.45h-.7A25.77,25.77,0,0,0,24,42.2V45a24.38,24.38,0,0,0,.37,48.76H97.43a20.08,20.08,0,0,0,2.62-40c0-.34,0-.68,0-1A18.43,18.43,0,0,0,75.29,35.45a25.78,25.78,0,0,0-24.84-19Z"/></g></g></svg>