<svg xmlns="http://www.w3.org/2000/svg" viewBox="0 0 126.11 142.46"><defs><style>.cls-1{fill:none;stroke:#fff;stroke-miterlimit:10;stroke-width:5px;}</style></defs><title>Asset 8</title><g id="Layer_2" data-name="Layer 2"><g id="Layer_1-2" data-name="Layer 1"><circle class="cls-1" cx="63.05" cy="71.23" r="15.78"/><line class="cls-1" x1="62.82" x2="62.82" y2="55.45"/><line class="cls-1" x1="44.34" y1="17.23" x2="62.82" y2="33.36"/><line class="cls-1" x1="81.3" y1="17.23" x2="62.82" y2="33.36"/><line class="cls-1" x1="1.25" y1="35.82" x2="49.27" y2="63.54"/><line class="cls-1" x1="6.93" y1="60.44" x2="30.14" y2="52.5"/><line class="cls-1" x1="25.41" y1="28.42" x2="30.14" y2="52.5"/><line class="cls-1" x1="1.48" y1="107.05" x2="49.51" y2="79.32"/><line class="cls-1" x1="25.64" y1="114.44" x2="30.38" y2="90.36"/><line class="cls-1" x1="7.16" y1="82.43" x2="30.38" y2="90.36"/><line class="cls-1" x1="63.29" y1="142.46" x2="63.29" y2="87.01"/><line class="cls-1" x1="81.77" y1="125.23" x2="63.29" y2="109.1"/><line class="cls-1" x1="44.8" y1="125.23" x2="63.29" y2="109.1"/><line class="cls-1" x1="124.86" y1="106.64" x2="76.83" y2="78.92"/><line class="cls-1" x1="119.18" y1="82.02" x2="95.96" y2="89.96"/><line class="cls-1" x1="100.7" y1="114.04" x2="95.96" y2="89.96"/><line class="cls-1" x1="124.62" y1="35.41" x2="76.6" y2="63.14"/><line class="cls-1" x1="100.46" y1="28.02" x2="95.73" y2="52.1"/><line class="cls-1" x1="118.95" y1="60.03" x2="95.73" y2="52.1"/></g></g></svg>